<?xml version="1.0" encoding="UTF-8"?>
<svg id="Layer_1" xmlns="http://www.w3.org/2000/svg" version="1.1" viewBox="0 0 110.44 110.44">
  <!-- Generator: Adobe Illustrator 30.6.0, SVG Export Plug-In . SVG Version: 2.1.4 Build 109)  -->
  <defs>
    <style>
      .st0 {
        fill: #d53e27;
        stroke: #922e24;
      }

      .st0, .st1 {
        stroke-miterlimit: 10;
      }

      .st2 {
        fill: #231f20;
      }

      .st3 {
        opacity: .89;
      }

      .st1 {
        fill: #922e24;
        stroke: #231f20;
      }

      .st4 {
        fill: #323338;
      }
    </style>
  </defs>
  <circle class="st2" cx="55.22" cy="55.22" r="55.22"/>
  <circle class="st4" cx="55.22" cy="55.22" r="52.81"/>
  <circle class="st1" cx="55.22" cy="55.23" r="46.92"/>
  <circle class="st0" cx="55.22" cy="55.22" r="42.76"/>
  <g>
    <path class="st3" d="M30.88,43.89c0-3.89,2.57-6.15,5.54-6.15,1.52,0,2.74.71,3.53,1.52l-1.4,1.7c-.59-.55-1.22-.93-2.07-.93-1.61,0-2.88,1.42-2.88,3.77s1.12,3.81,2.84,3.81c.96,0,1.72-.47,2.3-1.1l1.4,1.67c-.97,1.13-2.27,1.72-3.79,1.72-2.98,0-5.46-2.06-5.46-6.02Z"/>
    <path class="st3" d="M41.91,37.96h2.65v9.51h4.63v2.23h-7.29v-11.74Z"/>
    <path class="st3" d="M51.23,37.96h2.65v11.74h-2.65v-11.74Z"/>
    <path class="st3" d="M56.1,43.89c0-3.89,2.57-6.15,5.54-6.15,1.52,0,2.74.71,3.53,1.52l-1.4,1.7c-.59-.55-1.22-.93-2.07-.93-1.61,0-2.88,1.42-2.88,3.77s1.12,3.81,2.84,3.81c.96,0,1.72-.47,2.3-1.1l1.4,1.67c-.97,1.13-2.27,1.72-3.79,1.72-2.98,0-5.46-2.06-5.46-6.02Z"/>
    <path class="st3" d="M67.13,37.96h2.65v4.79h.07l3.5-4.79h2.92l-3.55,4.68,4.2,7.05h-2.91l-2.85-4.96-1.37,1.81v3.15h-2.65v-11.74Z"/>
    <path class="st3" d="M23.28,59.56h4.02c2.44,0,4.33.67,4.33,2.91,0,1.05-.59,2.17-1.55,2.53v.07c1.2.31,2.12,1.2,2.12,2.76,0,2.39-2.02,3.46-4.57,3.46h-4.35v-11.74ZM27.18,64.26c1.29,0,1.86-.54,1.86-1.4,0-.9-.6-1.26-1.84-1.26h-1.26v2.65h1.24ZM27.42,69.24c1.45,0,2.19-.51,2.19-1.58s-.73-1.45-2.19-1.45h-1.48v3.03h1.48Z"/>
    <path class="st3" d="M34.11,65.85v-6.3h2.65v6.57c0,2.3.72,3.09,2.04,3.09s2.08-.79,2.08-3.09v-6.57h2.56v6.3c0,3.94-1.6,5.65-4.64,5.65s-4.69-1.71-4.69-5.65Z"/>
    <path class="st3" d="M48.44,61.78h-3.23v-2.22h9.11v2.22h-3.23v9.51h-2.65v-9.51Z"/>
    <path class="st3" d="M58.44,61.78h-3.23v-2.22h9.11v2.22h-3.23v9.51h-2.65v-9.51Z"/>
    <path class="st3" d="M65.1,65.37c0-3.83,2.17-6.03,5.33-6.03s5.33,2.21,5.33,6.03-2.17,6.13-5.33,6.13-5.33-2.3-5.33-6.13ZM73.04,65.37c0-2.35-1.01-3.74-2.61-3.74s-2.61,1.39-2.61,3.74,1.01,3.84,2.61,3.84,2.61-1.49,2.61-3.84Z"/>
    <path class="st3" d="M77.96,59.56h2.72l3.06,5.84,1.16,2.58h.07c-.12-1.24-.34-2.88-.34-4.27v-4.15h2.53v11.74h-2.72l-3.06-5.85-1.16-2.56h-.07c.12,1.29.34,2.87.34,4.25v4.17h-2.53v-11.74Z"/>
  </g>
</svg>